<svg width="45" height="45" viewBox="0 0 45 45" fill="none" xmlns="http://www.w3.org/2000/svg">
<path d="M33.2395 11.6006H33.2595M12.2395 2.60059H32.2395C37.7623 2.60059 42.2395 7.07774 42.2395 12.6006V32.6006C42.2395 38.1234 37.7623 42.6006 32.2395 42.6006H12.2395C6.71665 42.6006 2.2395 38.1234 2.2395 32.6006V12.6006C2.2395 7.07774 6.71665 2.60059 12.2395 2.60059ZM30.2395 21.3406C30.4863 23.0051 30.202 24.705 29.427 26.1986C28.652 27.6922 27.4258 28.9034 25.9228 29.6599C24.4197 30.4165 22.7164 30.6798 21.0551 30.4125C19.3938 30.1451 17.859 29.3608 16.6692 28.1709C15.4793 26.9811 14.695 25.4463 14.4276 23.785C14.1603 22.1237 14.4236 20.4204 15.1802 18.9173C15.9367 17.4143 17.1479 16.1881 18.6415 15.4131C20.1351 14.6381 21.835 14.3538 23.4995 14.6006C25.1973 14.8524 26.7692 15.6435 27.9829 16.8572C29.1966 18.0709 29.9877 19.6427 30.2395 21.3406Z" stroke="white" stroke-width="4" stroke-linecap="round" stroke-linejoin="round"/>
</svg>
