<svg width="38" height="37" viewBox="0 0 38 37" fill="none" xmlns="http://www.w3.org/2000/svg">
<path d="M35.9061 26.6543V31.5293C35.908 31.9819 35.8129 32.4299 35.627 32.8445C35.441 33.2592 35.1683 33.6314 34.8263 33.9374C34.4842 34.2433 34.0804 34.4762 33.6407 34.6212C33.201 34.7662 32.7351 34.8201 32.2728 34.7793C27.1442 34.236 22.2178 32.5273 17.8895 29.7906C13.8625 27.2957 10.4484 23.9669 7.88947 20.0406C5.07277 15.8013 3.31988 10.9747 2.77281 5.95184C2.73116 5.50247 2.78593 5.04957 2.93364 4.62198C3.08135 4.19438 3.31876 3.80146 3.63075 3.46822C3.94274 3.13499 4.32248 2.86874 4.74579 2.68644C5.1691 2.50413 5.62671 2.40976 6.08947 2.40934H11.0895C11.8983 2.40158 12.6825 2.68084 13.2957 3.19508C13.909 3.70932 14.3096 4.42344 14.4228 5.20434C14.6338 6.76444 15.0252 8.29627 15.5895 9.77059C15.8137 10.3522 15.8622 10.9843 15.7293 11.592C15.5964 12.1997 15.2876 12.7575 14.8395 13.1993L12.7228 15.2631C15.0954 19.3313 18.5502 22.6998 22.7228 25.0131L24.8395 22.9493C25.2926 22.5124 25.8647 22.2113 26.488 22.0817C27.1113 21.9521 27.7596 21.9995 28.3561 22.2181C29.8683 22.7682 31.4394 23.1498 33.0395 23.3556C33.8491 23.4669 34.5885 23.8645 35.117 24.4728C35.6456 25.081 35.9264 25.8574 35.9061 26.6543Z" stroke="white" stroke-width="4" stroke-linecap="round" stroke-linejoin="round"/>
</svg>
