<svg width="49" height="36" viewBox="0 0 49 36" fill="none" xmlns="http://www.w3.org/2000/svg">
<path d="M45.3195 7.44059C45.082 6.49141 44.5981 5.62173 43.9169 4.9194C43.2356 4.21707 42.3811 3.70696 41.4395 3.44059C37.9995 2.60059 24.2395 2.60059 24.2395 2.60059C24.2395 2.60059 10.4795 2.60059 7.03955 3.52059C6.09804 3.78696 5.2435 4.29707 4.56224 4.9994C3.88098 5.70173 3.39712 6.57141 3.15955 7.52059C2.52998 11.0117 2.22202 14.5532 2.23955 18.1006C2.21711 21.6747 2.52508 25.2432 3.15955 28.7606C3.42147 29.6803 3.91616 30.5169 4.59583 31.1895C5.27551 31.8622 6.11719 32.3482 7.03955 32.6006C10.4795 33.5206 24.2395 33.5206 24.2395 33.5206C24.2395 33.5206 37.9995 33.5206 41.4395 32.6006C42.3811 32.3342 43.2356 31.8241 43.9169 31.1218C44.5981 30.4194 45.082 29.5498 45.3195 28.6006C45.9443 25.1358 46.2522 21.6213 46.2395 18.1006C46.262 14.5265 45.954 10.958 45.3195 7.44059Z" stroke="white" stroke-width="4" stroke-linecap="round" stroke-linejoin="round"/>
<path d="M19.7395 24.6406L31.2395 18.1006L19.7395 11.5606V24.6406Z" stroke="white" stroke-width="4" stroke-linecap="round" stroke-linejoin="round"/>
</svg>
